<svg width="441" height="71" viewBox="0 0 441 71" fill="none" xmlns="http://www.w3.org/2000/svg">
<g clip-path="url(#clip0_14:7)">
<path d="M43.163 31.7172C46.363 32.7305 48.8697 34.4372 50.683 36.8372C52.4964 39.1838 53.403 42.0905 53.403 45.5572C53.403 50.4638 51.483 54.2505 47.643 56.9172C43.8564 59.5305 38.3097 60.8372 31.003 60.8372H2.04302V4.83715H29.403C36.2297 4.83715 41.4564 6.14382 45.083 8.75716C48.763 11.3705 50.603 14.9172 50.603 19.3972C50.603 22.1172 49.9364 24.5438 48.603 26.6772C47.323 28.8105 45.5097 30.4905 43.163 31.7172ZM14.923 14.5972V27.7972H27.803C31.003 27.7972 33.4297 27.2372 35.083 26.1172C36.7363 24.9972 37.563 23.3438 37.563 21.1572C37.563 18.9705 36.7363 17.3438 35.083 16.2772C33.4297 15.1572 31.003 14.5972 27.803 14.5972H14.923ZM30.043 51.0772C33.4563 51.0772 36.0164 50.5172 37.723 49.3972C39.483 48.2772 40.363 46.5438 40.363 44.1972C40.363 39.5572 36.923 37.2372 30.043 37.2372H14.923V51.0772H30.043ZM109.695 17.7972V60.8372H97.8549V55.7172C96.2016 57.5838 94.2282 59.0238 91.9349 60.0372C89.6416 60.9972 87.1616 61.4772 84.4949 61.4772C78.8416 61.4772 74.3616 59.8505 71.0549 56.5972C67.7482 53.3438 66.0949 48.5172 66.0949 42.1172V17.7972H78.5749V40.2772C78.5749 47.2105 81.4816 50.6772 87.2949 50.6772C90.2816 50.6772 92.6816 49.7172 94.4949 47.7972C96.3082 45.8238 97.2149 42.9172 97.2149 39.0772V17.7972H109.695ZM160.697 51.2372V60.8372H122.297V53.3172L144.217 27.3972H122.857V17.7972H159.977V25.3172L138.057 51.2372H160.697ZM208.134 51.2372V60.8372H169.734V53.3172L191.654 27.3972H170.294V17.7972H207.414V25.3172L185.494 51.2372H208.134ZM233.972 15.2372V30.0372H259.892V40.4372H233.972V60.8372H221.012V4.83715H263.332V15.2372H233.972ZM294.612 61.4772C290.078 61.4772 285.998 60.5438 282.372 58.6772C278.798 56.7572 275.998 54.1172 273.972 50.7572C271.945 47.3972 270.932 43.5838 270.932 39.3172C270.932 35.0505 271.945 31.2372 273.972 27.8772C275.998 24.5172 278.798 21.9038 282.372 20.0372C285.998 18.1172 290.078 17.1572 294.612 17.1572C299.145 17.1572 303.198 18.1172 306.772 20.0372C310.345 21.9038 313.145 24.5172 315.172 27.8772C317.198 31.2372 318.212 35.0505 318.212 39.3172C318.212 43.5838 317.198 47.3972 315.172 50.7572C313.145 54.1172 310.345 56.7572 306.772 58.6772C303.198 60.5438 299.145 61.4772 294.612 61.4772ZM294.612 51.2372C297.812 51.2372 300.425 50.1705 302.452 48.0372C304.532 45.8505 305.572 42.9438 305.572 39.3172C305.572 35.6905 304.532 32.8105 302.452 30.6772C300.425 28.4905 297.812 27.3972 294.612 27.3972C291.412 27.3972 288.772 28.4905 286.692 30.6772C284.612 32.8105 283.572 35.6905 283.572 39.3172C283.572 42.9438 284.612 45.8505 286.692 48.0372C288.772 50.1705 291.412 51.2372 294.612 51.2372ZM351.034 61.4772C346.5 61.4772 342.42 60.5438 338.794 58.6772C335.22 56.7572 332.42 54.1172 330.394 50.7572C328.367 47.3972 327.354 43.5838 327.354 39.3172C327.354 35.0505 328.367 31.2372 330.394 27.8772C332.42 24.5172 335.22 21.9038 338.794 20.0372C342.42 18.1172 346.5 17.1572 351.034 17.1572C355.567 17.1572 359.62 18.1172 363.194 20.0372C366.767 21.9038 369.567 24.5172 371.594 27.8772C373.62 31.2372 374.634 35.0505 374.634 39.3172C374.634 43.5838 373.62 47.3972 371.594 50.7572C369.567 54.1172 366.767 56.7572 363.194 58.6772C359.62 60.5438 355.567 61.4772 351.034 61.4772ZM351.034 51.2372C354.234 51.2372 356.847 50.1705 358.874 48.0372C360.954 45.8505 361.994 42.9438 361.994 39.3172C361.994 35.6905 360.954 32.8105 358.874 30.6772C356.847 28.4905 354.234 27.3972 351.034 27.3972C347.834 27.3972 345.194 28.4905 343.114 30.6772C341.034 32.8105 339.994 35.6905 339.994 39.3172C339.994 42.9438 341.034 45.8505 343.114 48.0372C345.194 50.1705 347.834 51.2372 351.034 51.2372ZM430.816 1.47715V60.8372H418.896V55.8772C415.802 59.6105 411.322 61.4772 405.456 61.4772C401.402 61.4772 397.722 60.5705 394.416 58.7572C391.162 56.9438 388.602 54.3572 386.736 50.9972C384.869 47.6372 383.936 43.7438 383.936 39.3172C383.936 34.8905 384.869 30.9972 386.736 27.6372C388.602 24.2772 391.162 21.6905 394.416 19.8772C397.722 18.0638 401.402 17.1572 405.456 17.1572C410.949 17.1572 415.242 18.8905 418.336 22.3572V1.47715H430.816ZM407.616 51.2372C410.762 51.2372 413.376 50.1705 415.456 48.0372C417.536 45.8505 418.576 42.9438 418.576 39.3172C418.576 35.6905 417.536 32.8105 415.456 30.6772C413.376 28.4905 410.762 27.3972 407.616 27.3972C404.416 27.3972 401.776 28.4905 399.696 30.6772C397.616 32.8105 396.576 35.6905 396.576 39.3172C396.576 42.9438 397.616 45.8505 399.696 48.0372C401.776 50.1705 404.416 51.2372 407.616 51.2372Z" fill="#06FF3D" fill-opacity="0.6"/>
<path d="M50.3806 34.6041C53.5806 35.6175 56.0873 37.3241 57.9006 39.7241C59.7139 42.0708 60.6206 44.9775 60.6206 48.4441C60.6206 53.3508 58.7006 57.1375 54.8606 59.8041C51.0739 62.4175 45.5273 63.7241 38.2206 63.7241H9.26059V7.72412H36.6206C43.4473 7.72412 48.6739 9.03078 52.3006 11.6441C55.9806 14.2575 57.8206 17.8041 57.8206 22.2841C57.8206 25.0041 57.1539 27.4308 55.8206 29.5641C54.5406 31.6975 52.7273 33.3775 50.3806 34.6041ZM22.1406 17.4841V30.6841H35.0206C38.2206 30.6841 40.6473 30.1241 42.3006 29.0041C43.9539 27.8841 44.7806 26.2308 44.7806 24.0441C44.7806 21.8575 43.9539 20.2308 42.3006 19.1641C40.6473 18.0441 38.2206 17.4841 35.0206 17.4841H22.1406ZM37.2606 53.9641C40.6739 53.9641 43.2339 53.4041 44.9406 52.2841C46.7006 51.1641 47.5806 49.4308 47.5806 47.0841C47.5806 42.4441 44.1406 40.1241 37.2606 40.1241H22.1406V53.9641H37.2606ZM116.912 20.6841V63.7241H105.072V58.6041C103.419 60.4708 101.446 61.9108 99.1525 62.9241C96.8591 63.8841 94.3791 64.3641 91.7125 64.3641C86.0591 64.3641 81.5791 62.7375 78.2725 59.4841C74.9658 56.2308 73.3125 51.4041 73.3125 45.0041V20.6841H85.7925V43.1641C85.7925 50.0975 88.6991 53.5641 94.5125 53.5641C97.4991 53.5641 99.8991 52.6041 101.712 50.6841C103.526 48.7108 104.432 45.8041 104.432 41.9641V20.6841H116.912ZM167.914 54.1241V63.7241H129.514V56.2041L151.434 30.2841H130.074V20.6841H167.194V28.2041L145.274 54.1241H167.914ZM215.352 54.1241V63.7241H176.952V56.2041L198.872 30.2841H177.512V20.6841H214.632V28.2041L192.712 54.1241H215.352ZM241.189 18.1241V32.9241H267.109V43.3241H241.189V63.7241H228.229V7.72412H270.549V18.1241H241.189ZM301.829 64.3641C297.296 64.3641 293.216 63.4308 289.589 61.5641C286.016 59.6441 283.216 57.0041 281.189 53.6441C279.163 50.2841 278.149 46.4708 278.149 42.2041C278.149 37.9375 279.163 34.1241 281.189 30.7641C283.216 27.4041 286.016 24.7908 289.589 22.9241C293.216 21.0041 297.296 20.0441 301.829 20.0441C306.363 20.0441 310.416 21.0041 313.989 22.9241C317.563 24.7908 320.363 27.4041 322.389 30.7641C324.416 34.1241 325.429 37.9375 325.429 42.2041C325.429 46.4708 324.416 50.2841 322.389 53.6441C320.363 57.0041 317.563 59.6441 313.989 61.5641C310.416 63.4308 306.363 64.3641 301.829 64.3641ZM301.829 54.1241C305.029 54.1241 307.643 53.0575 309.669 50.9241C311.749 48.7375 312.789 45.8308 312.789 42.2041C312.789 38.5775 311.749 35.6975 309.669 33.5641C307.643 31.3775 305.029 30.2841 301.829 30.2841C298.629 30.2841 295.989 31.3775 293.909 33.5641C291.829 35.6975 290.789 38.5775 290.789 42.2041C290.789 45.8308 291.829 48.7375 293.909 50.9241C295.989 53.0575 298.629 54.1241 301.829 54.1241ZM358.251 64.3641C353.718 64.3641 349.638 63.4308 346.011 61.5641C342.438 59.6441 339.638 57.0041 337.611 53.6441C335.585 50.2841 334.571 46.4708 334.571 42.2041C334.571 37.9375 335.585 34.1241 337.611 30.7641C339.638 27.4041 342.438 24.7908 346.011 22.9241C349.638 21.0041 353.718 20.0441 358.251 20.0441C362.785 20.0441 366.838 21.0041 370.411 22.9241C373.985 24.7908 376.785 27.4041 378.811 30.7641C380.838 34.1241 381.851 37.9375 381.851 42.2041C381.851 46.4708 380.838 50.2841 378.811 53.6441C376.785 57.0041 373.985 59.6441 370.411 61.5641C366.838 63.4308 362.785 64.3641 358.251 64.3641ZM358.251 54.1241C361.451 54.1241 364.065 53.0575 366.091 50.9241C368.171 48.7375 369.211 45.8308 369.211 42.2041C369.211 38.5775 368.171 35.6975 366.091 33.5641C364.065 31.3775 361.451 30.2841 358.251 30.2841C355.051 30.2841 352.411 31.3775 350.331 33.5641C348.251 35.6975 347.211 38.5775 347.211 42.2041C347.211 45.8308 348.251 48.7375 350.331 50.9241C352.411 53.0575 355.051 54.1241 358.251 54.1241ZM438.033 4.36412V63.7241H426.113V58.7641C423.02 62.4975 418.54 64.3641 412.673 64.3641C408.62 64.3641 404.94 63.4575 401.633 61.6441C398.38 59.8308 395.82 57.2441 393.953 53.8841C392.086 50.5241 391.153 46.6308 391.153 42.2041C391.153 37.7775 392.086 33.8841 393.953 30.5241C395.82 27.1641 398.38 24.5775 401.633 22.7641C404.94 20.9508 408.62 20.0441 412.673 20.0441C418.166 20.0441 422.46 21.7775 425.553 25.2441V4.36412H438.033ZM414.833 54.1241C417.98 54.1241 420.593 53.0575 422.673 50.9241C424.753 48.7375 425.793 45.8308 425.793 42.2041C425.793 38.5775 424.753 35.6975 422.673 33.5641C420.593 31.3775 417.98 30.2841 414.833 30.2841C411.633 30.2841 408.993 31.3775 406.913 33.5641C404.833 35.6975 403.793 38.5775 403.793 42.2041C403.793 45.8308 404.833 48.7375 406.913 50.9241C408.993 53.0575 411.633 54.1241 414.833 54.1241Z" fill="#3000B9" fill-opacity="0.6"/>
<path d="M46.5315 33.6793C49.7315 34.6926 52.2381 36.3993 54.0515 38.7993C55.8648 41.146 56.7715 44.0526 56.7715 47.5193C56.7715 52.426 54.8515 56.2126 51.0115 58.8793C47.2248 61.4926 41.6781 62.7993 34.3715 62.7993H5.41147V6.79931H32.7715C39.5981 6.79931 44.8248 8.10598 48.4515 10.7193C52.1315 13.3326 53.9715 16.8793 53.9715 21.3593C53.9715 24.0793 53.3048 26.506 51.9715 28.6393C50.6915 30.7726 48.8781 32.4526 46.5315 33.6793ZM18.2915 16.5593V29.7593H31.1715C34.3715 29.7593 36.7981 29.1993 38.4515 28.0793C40.1048 26.9593 40.9315 25.306 40.9315 23.1193C40.9315 20.9326 40.1048 19.306 38.4515 18.2393C36.7981 17.1193 34.3715 16.5593 31.1715 16.5593H18.2915ZM33.4115 53.0393C36.8248 53.0393 39.3848 52.4793 41.0915 51.3593C42.8515 50.2393 43.7315 48.506 43.7315 46.1593C43.7315 41.5193 40.2915 39.1993 33.4115 39.1993H18.2915V53.0393H33.4115ZM113.063 19.7593V62.7993H101.223V57.6793C99.57 59.546 97.5967 60.986 95.3033 61.9993C93.01 62.9593 90.53 63.4393 87.8633 63.4393C82.21 63.4393 77.73 61.8126 74.4233 58.5593C71.1167 55.306 69.4633 50.4793 69.4633 44.0793V19.7593H81.9433V42.2393C81.9433 49.1726 84.85 52.6393 90.6633 52.6393C93.65 52.6393 96.05 51.6793 97.8633 49.7593C99.6767 47.786 100.583 44.8793 100.583 41.0393V19.7593H113.063ZM164.065 53.1993V62.7993H125.665V55.2793L147.585 29.3593H126.225V19.7593H163.345V27.2793L141.425 53.1993H164.065ZM211.503 53.1993V62.7993H173.103V55.2793L195.023 29.3593H173.663V19.7593H210.783V27.2793L188.863 53.1993H211.503ZM237.34 17.1993V31.9993H263.26V42.3993H237.34V62.7993H224.38V6.79931H266.7V17.1993H237.34ZM297.98 63.4393C293.447 63.4393 289.367 62.506 285.74 60.6393C282.167 58.7193 279.367 56.0793 277.34 52.7193C275.314 49.3593 274.3 45.546 274.3 41.2793C274.3 37.0126 275.314 33.1993 277.34 29.8393C279.367 26.4793 282.167 23.866 285.74 21.9993C289.367 20.0793 293.447 19.1193 297.98 19.1193C302.514 19.1193 306.567 20.0793 310.14 21.9993C313.714 23.866 316.514 26.4793 318.54 29.8393C320.567 33.1993 321.58 37.0126 321.58 41.2793C321.58 45.546 320.567 49.3593 318.54 52.7193C316.514 56.0793 313.714 58.7193 310.14 60.6393C306.567 62.506 302.514 63.4393 297.98 63.4393ZM297.98 53.1993C301.18 53.1993 303.794 52.1326 305.82 49.9993C307.9 47.8126 308.94 44.906 308.94 41.2793C308.94 37.6526 307.9 34.7726 305.82 32.6393C303.794 30.4526 301.18 29.3593 297.98 29.3593C294.78 29.3593 292.14 30.4526 290.06 32.6393C287.98 34.7726 286.94 37.6526 286.94 41.2793C286.94 44.906 287.98 47.8126 290.06 49.9993C292.14 52.1326 294.78 53.1993 297.98 53.1993ZM354.402 63.4393C349.869 63.4393 345.789 62.506 342.162 60.6393C338.589 58.7193 335.789 56.0793 333.762 52.7193C331.735 49.3593 330.722 45.546 330.722 41.2793C330.722 37.0126 331.735 33.1993 333.762 29.8393C335.789 26.4793 338.589 23.866 342.162 21.9993C345.789 20.0793 349.869 19.1193 354.402 19.1193C358.935 19.1193 362.989 20.0793 366.562 21.9993C370.135 23.866 372.935 26.4793 374.962 29.8393C376.989 33.1993 378.002 37.0126 378.002 41.2793C378.002 45.546 376.989 49.3593 374.962 52.7193C372.935 56.0793 370.135 58.7193 366.562 60.6393C362.989 62.506 358.935 63.4393 354.402 63.4393ZM354.402 53.1993C357.602 53.1993 360.215 52.1326 362.242 49.9993C364.322 47.8126 365.362 44.906 365.362 41.2793C365.362 37.6526 364.322 34.7726 362.242 32.6393C360.215 30.4526 357.602 29.3593 354.402 29.3593C351.202 29.3593 348.562 30.4526 346.482 32.6393C344.402 34.7726 343.362 37.6526 343.362 41.2793C343.362 44.906 344.402 47.8126 346.482 49.9993C348.562 52.1326 351.202 53.1993 354.402 53.1993ZM434.184 3.43931V62.7993H422.264V57.8393C419.171 61.5726 414.691 63.4393 408.824 63.4393C404.771 63.4393 401.091 62.5326 397.784 60.7193C394.531 58.906 391.971 56.3193 390.104 52.9593C388.237 49.5993 387.304 45.706 387.304 41.2793C387.304 36.8526 388.237 32.9593 390.104 29.5993C391.971 26.2393 394.531 23.6526 397.784 21.8393C401.091 20.026 404.771 19.1193 408.824 19.1193C414.317 19.1193 418.611 20.8526 421.704 24.3193V3.43931H434.184ZM410.984 53.1993C414.131 53.1993 416.744 52.1326 418.824 49.9993C420.904 47.8126 421.944 44.906 421.944 41.2793C421.944 37.6526 420.904 34.7726 418.824 32.6393C416.744 30.4526 414.131 29.3593 410.984 29.3593C407.784 29.3593 405.144 30.4526 403.064 32.6393C400.984 34.7726 399.944 37.6526 399.944 41.2793C399.944 44.906 400.984 47.8126 403.064 49.9993C405.144 52.1326 407.784 53.1993 410.984 53.1993Z" fill="#AF2000"/>
<path d="M46.5315 33.6793L46.0682 32.7931L43.9375 33.9068L46.2296 34.6327L46.5315 33.6793ZM54.0515 38.7993L53.2536 39.4022L53.2602 39.4108L54.0515 38.7993ZM51.0115 58.8793L51.5795 59.7023L51.5819 59.7007L51.0115 58.8793ZM5.41147 62.7993H4.41147V63.7993H5.41147V62.7993ZM5.41147 6.79931V5.79931H4.41147V6.79931H5.41147ZM48.4515 10.7193L47.8668 11.5306L47.8725 11.5346L48.4515 10.7193ZM51.9715 28.6393L51.1235 28.1093L51.1187 28.117L51.114 28.1248L51.9715 28.6393ZM18.2915 16.5593V15.5593H17.2915V16.5593H18.2915ZM18.2915 29.7593H17.2915V30.7593H18.2915V29.7593ZM38.4515 18.2393L37.8906 19.0672L37.8999 19.0735L37.9093 19.0796L38.4515 18.2393ZM41.0915 51.3593L40.5545 50.5156L40.5428 50.5233L41.0915 51.3593ZM18.2915 39.1993V38.1993H17.2915V39.1993H18.2915ZM18.2915 53.0393H17.2915V54.0393H18.2915V53.0393ZM46.2296 34.6327C49.2558 35.591 51.5796 37.1865 53.2536 39.4021L54.8493 38.1965C52.8967 35.6121 50.2071 33.7943 46.8334 32.726L46.2296 34.6327ZM53.2602 39.4108C54.9162 41.5538 55.7715 44.235 55.7715 47.5193H57.7715C57.7715 43.8703 56.8134 40.7381 54.8428 38.1879L53.2602 39.4108ZM55.7715 47.5193C55.7715 52.1176 53.9965 55.5889 50.4411 58.0579L51.5819 59.7007C55.7064 56.8364 57.7715 52.7344 57.7715 47.5193H55.7715ZM50.4435 58.0563C46.8958 60.5047 41.5851 61.7993 34.3715 61.7993V63.7993C41.7712 63.7993 47.5539 62.4806 51.5795 59.7023L50.4435 58.0563ZM34.3715 61.7993H5.41147V63.7993H34.3715V61.7993ZM6.41147 62.7993V6.79931H4.41147V62.7993H6.41147ZM5.41147 7.79931H32.7715V5.79931H5.41147V7.79931ZM32.7715 7.79931C39.4922 7.79931 44.4788 9.08926 47.8669 11.5306L49.0361 9.90801C45.1708 7.1227 39.7041 5.79931 32.7715 5.79931V7.79931ZM47.8725 11.5346C51.2907 13.9621 52.9715 17.2061 52.9715 21.3593H54.9715C54.9715 16.5525 52.9722 12.7032 49.0305 9.90399L47.8725 11.5346ZM52.9715 21.3593C52.9715 23.9077 52.3494 26.1478 51.1235 28.1093L52.8195 29.1693C54.2602 26.8641 54.9715 24.2509 54.9715 21.3593H52.9715ZM51.114 28.1248C49.9348 30.0901 48.2627 31.646 46.0682 32.7931L46.9947 34.5655C49.4936 33.2593 51.4481 31.4552 52.829 29.1538L51.114 28.1248ZM17.2915 16.5593V29.7593H19.2915V16.5593H17.2915ZM18.2915 30.7593H31.1715V28.7593H18.2915V30.7593ZM31.1715 30.7593C34.4612 30.7593 37.1211 30.1884 39.0123 28.9072L37.8906 27.2514C36.4752 28.2102 34.2818 28.7593 31.1715 28.7593V30.7593ZM39.0123 28.9072C40.9697 27.5813 41.9315 25.6006 41.9315 23.1193H39.9315C39.9315 25.0114 39.2399 26.3373 37.8906 27.2514L39.0123 28.9072ZM41.9315 23.1193C41.9315 20.6377 40.9681 18.6729 38.9936 17.399L37.9093 19.0796C39.2416 19.9391 39.9315 21.2276 39.9315 23.1193H41.9315ZM39.0123 17.4114C37.1211 16.1302 34.4612 15.5593 31.1715 15.5593V17.5593C34.2818 17.5593 36.4752 18.1084 37.8906 19.0672L39.0123 17.4114ZM31.1715 15.5593H18.2915V17.5593H31.1715V15.5593ZM33.4115 54.0393C36.9024 54.0393 39.6942 53.4724 41.6401 52.1954L40.5428 50.5233C39.0754 51.4863 36.7472 52.0393 33.4115 52.0393V54.0393ZM41.6283 52.203C43.717 50.8739 44.7315 48.7974 44.7315 46.1593H42.7315C42.7315 48.2146 41.986 49.6048 40.5546 50.5157L41.6283 52.203ZM44.7315 46.1593C44.7315 43.5529 43.7424 41.4805 41.7106 40.1102C39.749 38.7873 36.9325 38.1993 33.4115 38.1993V40.1993C36.7705 40.1993 39.114 40.7714 40.5923 41.7684C42.0006 42.7181 42.7315 44.1257 42.7315 46.1593H44.7315ZM33.4115 38.1993H18.2915V40.1993H33.4115V38.1993ZM17.2915 39.1993V53.0393H19.2915V39.1993H17.2915ZM18.2915 54.0393H33.4115V52.0393H18.2915V54.0393ZM113.063 19.7593H114.063V18.7593H113.063V19.7593ZM113.063 62.7993V63.7993H114.063V62.7993H113.063ZM101.223 62.7993H100.223V63.7993H101.223V62.7993ZM101.223 57.6793H102.223V55.0421L100.475 57.0163L101.223 57.6793ZM95.3033 61.9993L95.6895 62.9218L95.6985 62.918L95.7075 62.914L95.3033 61.9993ZM74.4233 58.5593L75.1247 57.8465L75.1247 57.8465L74.4233 58.5593ZM69.4633 19.7593V18.7593H68.4633V19.7593H69.4633ZM81.9433 19.7593H82.9433V18.7593H81.9433V19.7593ZM97.8633 49.7593L98.5904 50.446L98.5997 50.4359L97.8633 49.7593ZM100.583 19.7593V18.7593H99.5833V19.7593H100.583ZM112.063 19.7593V62.7993H114.063V19.7593H112.063ZM113.063 61.7993H101.223V63.7993H113.063V61.7993ZM102.223 62.7993V57.6793H100.223V62.7993H102.223ZM100.475 57.0163C98.9173 58.7747 97.0617 60.1291 94.8992 61.0846L95.7075 62.914C98.1317 61.8429 100.223 60.3173 101.972 58.3424L100.475 57.0163ZM94.9172 61.0769C92.7548 61.9821 90.4072 62.4393 87.8633 62.4393V64.4393C90.6529 64.4393 93.2652 63.9366 95.6895 62.9218L94.9172 61.0769ZM87.8633 62.4393C82.4114 62.4393 78.2049 60.877 75.1247 57.8465L73.722 59.2721C77.2551 62.7483 82.0086 64.4393 87.8633 64.4393V62.4393ZM75.1247 57.8465C72.0723 54.8434 70.4633 50.3154 70.4633 44.0793H68.4633C68.4633 50.6432 70.161 55.7686 73.722 59.2721L75.1247 57.8465ZM70.4633 44.0793V19.7593H68.4633V44.0793H70.4633ZM69.4633 20.7593H81.9433V18.7593H69.4633V20.7593ZM80.9433 19.7593V42.2393H82.9433V19.7593H80.9433ZM80.9433 42.2393C80.9433 45.8214 81.6905 48.6942 83.3571 50.6818C85.0519 52.7032 87.5518 53.6393 90.6633 53.6393V51.6393C87.9616 51.6393 86.1015 50.8421 84.8896 49.3968C83.6495 47.9178 82.9433 45.5906 82.9433 42.2393H80.9433ZM90.6633 53.6393C93.8855 53.6393 96.5625 52.593 98.5904 50.4459L97.1363 49.0727C95.5375 50.7656 93.4145 51.6393 90.6633 51.6393V53.6393ZM98.5997 50.4359C100.644 48.2117 101.583 45.0222 101.583 41.0393H99.5833C99.5833 44.7365 98.7098 47.3603 97.127 49.0827L98.5997 50.4359ZM101.583 41.0393V19.7593H99.5833V41.0393H101.583ZM100.583 20.7593H113.063V18.7593H100.583V20.7593ZM164.065 53.1993H165.065V52.1993H164.065V53.1993ZM164.065 62.7993V63.7993H165.065V62.7993H164.065ZM125.665 62.7993H124.665V63.7993H125.665V62.7993ZM125.665 55.2793L124.902 54.6336L124.665 54.9132V55.2793H125.665ZM147.585 29.3593L148.349 30.005L149.741 28.3593H147.585V29.3593ZM126.225 29.3593H125.225V30.3593H126.225V29.3593ZM126.225 19.7593V18.7593H125.225V19.7593H126.225ZM163.345 19.7593H164.345V18.7593H163.345V19.7593ZM163.345 27.2793L164.109 27.925L164.345 27.6455V27.2793H163.345ZM141.425 53.1993L140.662 52.5536L139.27 54.1993H141.425V53.1993ZM163.065 53.1993V62.7993H165.065V53.1993H163.065ZM164.065 61.7993H125.665V63.7993H164.065V61.7993ZM126.665 62.7993V55.2793H124.665V62.7993H126.665ZM126.429 55.925L148.349 30.005L146.822 28.7136L124.902 54.6336L126.429 55.925ZM147.585 28.3593H126.225V30.3593H147.585V28.3593ZM127.225 29.3593V19.7593H125.225V29.3593H127.225ZM126.225 20.7593H163.345V18.7593H126.225V20.7593ZM162.345 19.7593V27.2793H164.345V19.7593H162.345ZM162.582 26.6336L140.662 52.5536L142.189 53.845L164.109 27.925L162.582 26.6336ZM141.425 54.1993H164.065V52.1993H141.425V54.1993ZM211.503 53.1993H212.503V52.1993H211.503V53.1993ZM211.503 62.7993V63.7993H212.503V62.7993H211.503ZM173.103 62.7993H172.103V63.7993H173.103V62.7993ZM173.103 55.2793L172.339 54.6336L172.103 54.9132V55.2793H173.103ZM195.023 29.3593L195.786 30.005L197.178 28.3593H195.023V29.3593ZM173.663 29.3593H172.663V30.3593H173.663V29.3593ZM173.663 19.7593V18.7593H172.663V19.7593H173.663ZM210.783 19.7593H211.783V18.7593H210.783V19.7593ZM210.783 27.2793L211.546 27.925L211.783 27.6455V27.2793H210.783ZM188.863 53.1993L188.099 52.5536L186.707 54.1993H188.863V53.1993ZM210.503 53.1993V62.7993H212.503V53.1993H210.503ZM211.503 61.7993H173.103V63.7993H211.503V61.7993ZM174.103 62.7993V55.2793H172.103V62.7993H174.103ZM173.866 55.925L195.786 30.005L194.259 28.7136L172.339 54.6336L173.866 55.925ZM195.023 28.3593H173.663V30.3593H195.023V28.3593ZM174.663 29.3593V19.7593H172.663V29.3593H174.663ZM173.663 20.7593H210.783V18.7593H173.663V20.7593ZM209.783 19.7593V27.2793H211.783V19.7593H209.783ZM210.019 26.6336L188.099 52.5536L189.626 53.845L211.546 27.925L210.019 26.6336ZM188.863 54.1993H211.503V52.1993H188.863V54.1993ZM237.34 17.1993V16.1993H236.34V17.1993H237.34ZM237.34 31.9993H236.34V32.9993H237.34V31.9993ZM263.26 31.9993H264.26V30.9993H263.26V31.9993ZM263.26 42.3993V43.3993H264.26V42.3993H263.26ZM237.34 42.3993V41.3993H236.34V42.3993H237.34ZM237.34 62.7993V63.7993H238.34V62.7993H237.34ZM224.38 62.7993H223.38V63.7993H224.38V62.7993ZM224.38 6.79931V5.79931H223.38V6.79931H224.38ZM266.7 6.79931H267.7V5.79931H266.7V6.79931ZM266.7 17.1993V18.1993H267.7V17.1993H266.7ZM236.34 17.1993V31.9993H238.34V17.1993H236.34ZM237.34 32.9993H263.26V30.9993H237.34V32.9993ZM262.26 31.9993V42.3993H264.26V31.9993H262.26ZM263.26 41.3993H237.34V43.3993H263.26V41.3993ZM236.34 42.3993V62.7993H238.34V42.3993H236.34ZM237.34 61.7993H224.38V63.7993H237.34V61.7993ZM225.38 62.7993V6.79931H223.38V62.7993H225.38ZM224.38 7.79931H266.7V5.79931H224.38V7.79931ZM265.7 6.79931V17.1993H267.7V6.79931H265.7ZM266.7 16.1993H237.34V18.1993H266.7V16.1993ZM285.74 60.6393L285.267 61.5202L285.275 61.5244L285.283 61.5285L285.74 60.6393ZM277.34 52.7193L276.484 53.2358L276.484 53.2358L277.34 52.7193ZM277.34 29.8393L276.484 29.3228L276.484 29.3228L277.34 29.8393ZM285.74 21.9993L286.203 22.8857L286.208 22.8831L285.74 21.9993ZM310.14 21.9993L309.667 22.8803L309.677 22.8857L310.14 21.9993ZM318.54 29.8393L319.397 29.3228L319.397 29.3228L318.54 29.8393ZM318.54 52.7193L319.397 53.2358L319.397 53.2358L318.54 52.7193ZM310.14 60.6393L310.603 61.5257L310.614 61.5202L310.14 60.6393ZM305.82 49.9993L305.096 49.3101L305.095 49.3106L305.82 49.9993ZM305.82 32.6393L305.087 33.3191L305.095 33.3284L305.104 33.3374L305.82 32.6393ZM290.06 32.6393L290.776 33.3375L290.785 33.3285L290.06 32.6393ZM290.06 49.9993L289.336 50.6886L289.344 50.6974L290.06 49.9993ZM297.98 62.4393C293.588 62.4393 289.668 61.5362 286.198 59.7502L285.283 61.5285C289.066 63.4758 293.306 64.4393 297.98 64.4393V62.4393ZM286.214 59.7584C282.793 57.9203 280.127 55.4039 278.197 52.2028L276.484 53.2358C278.606 56.7548 281.541 59.5183 285.267 61.5202L286.214 59.7584ZM278.197 52.2028C276.272 49.0122 275.3 45.3804 275.3 41.2793H273.3C273.3 45.7116 274.355 49.7064 276.484 53.2358L278.197 52.2028ZM275.3 41.2793C275.3 37.1782 276.272 33.5464 278.197 30.3558L276.484 29.3228C274.355 32.8522 273.3 36.8471 273.3 41.2793H275.3ZM278.197 30.3558C280.126 27.1573 282.788 24.6699 286.203 22.8857L285.277 21.113C281.546 23.0621 278.608 25.8013 276.484 29.3228L278.197 30.3558ZM286.208 22.8831C289.676 21.0472 293.593 20.1193 297.98 20.1193V18.1193C293.301 18.1193 289.058 19.1115 285.272 21.1155L286.208 22.8831ZM297.98 20.1193C302.368 20.1193 306.256 21.0472 309.667 22.8802L310.614 21.1184C306.878 19.1114 302.659 18.1193 297.98 18.1193V20.1193ZM309.677 22.8857C313.093 24.6699 315.755 27.1573 317.684 30.3558L319.397 29.3228C317.272 25.8013 314.334 23.0621 310.603 21.113L309.677 22.8857ZM317.684 30.3558C319.608 33.5464 320.58 37.1782 320.58 41.2793H322.58C322.58 36.8471 321.525 32.8522 319.397 29.3228L317.684 30.3558ZM320.58 41.2793C320.58 45.3804 319.608 49.0122 317.684 52.2028L319.397 53.2358C321.525 49.7064 322.58 45.7116 322.58 41.2793H320.58ZM317.684 52.2028C315.753 55.4039 313.088 57.9203 309.667 59.7584L310.614 61.5202C314.339 59.5183 317.274 56.7548 319.397 53.2358L317.684 52.2028ZM309.677 59.753C306.264 61.5361 302.373 62.4393 297.98 62.4393V64.4393C302.654 64.4393 306.87 63.4759 310.603 61.5257L309.677 59.753ZM297.98 54.1993C301.428 54.1993 304.312 53.0387 306.545 50.6881L305.095 49.3106C303.275 51.2266 300.933 52.1993 297.98 52.1993V54.1993ZM306.545 50.6885C308.836 48.2796 309.94 45.1076 309.94 41.2793H307.94C307.94 44.7044 306.964 47.3457 305.096 49.3101L306.545 50.6885ZM309.94 41.2793C309.94 37.4519 308.836 34.3003 306.536 31.9412L305.104 33.3374C306.964 35.245 307.94 37.8534 307.94 41.2793H309.94ZM306.554 31.9596C304.323 29.5525 301.436 28.3593 297.98 28.3593V30.3593C300.925 30.3593 303.264 31.3528 305.087 33.3191L306.554 31.9596ZM297.98 28.3593C294.525 28.3593 291.617 29.552 289.336 31.9501L290.785 33.3285C292.664 31.3533 295.036 30.3593 297.98 30.3593V28.3593ZM289.344 31.9412C287.044 34.3003 285.94 37.4519 285.94 41.2793H287.94C287.94 37.8534 288.916 35.245 290.776 33.3374L289.344 31.9412ZM285.94 41.2793C285.94 45.1076 287.044 48.2796 289.336 50.6885L290.785 49.3101C288.916 47.3457 287.94 44.7044 287.94 41.2793H285.94ZM289.344 50.6974C291.627 53.0391 294.533 54.1993 297.98 54.1993V52.1993C295.028 52.1993 292.653 51.2262 290.776 49.3012L289.344 50.6974ZM342.162 60.6393L341.689 61.5202L341.697 61.5244L341.704 61.5285L342.162 60.6393ZM333.762 52.7193L332.906 53.2358L332.906 53.2358L333.762 52.7193ZM333.762 29.8393L332.906 29.3228L332.906 29.3228L333.762 29.8393ZM342.162 21.9993L342.625 22.8857L342.63 22.8831L342.162 21.9993ZM366.562 21.9993L366.089 22.8803L366.099 22.8857L366.562 21.9993ZM374.962 29.8393L375.818 29.3228L375.818 29.3228L374.962 29.8393ZM374.962 52.7193L375.818 53.2358L375.818 53.2358L374.962 52.7193ZM366.562 60.6393L367.025 61.5257L367.035 61.5202L366.562 60.6393ZM362.242 49.9993L361.518 49.3101L361.517 49.3106L362.242 49.9993ZM362.242 32.6393L361.509 33.3191L361.517 33.3284L361.526 33.3374L362.242 32.6393ZM346.482 32.6393L347.198 33.3375L347.207 33.3285L346.482 32.6393ZM346.482 49.9993L345.757 50.6886L345.766 50.6974L346.482 49.9993ZM354.402 62.4393C350.01 62.4393 346.09 61.5362 342.62 59.7502L341.704 61.5285C345.488 63.4758 349.728 64.4393 354.402 64.4393V62.4393ZM342.635 59.7584C339.215 57.9203 336.549 55.4039 334.618 52.2028L332.906 53.2358C335.028 56.7548 337.963 59.5183 341.689 61.5202L342.635 59.7584ZM334.618 52.2028C332.694 49.0122 331.722 45.3804 331.722 41.2793H329.722C329.722 45.7116 330.777 49.7064 332.906 53.2358L334.618 52.2028ZM331.722 41.2793C331.722 37.1782 332.694 33.5464 334.618 30.3558L332.906 29.3228C330.777 32.8522 329.722 36.8471 329.722 41.2793H331.722ZM334.618 30.3558C336.548 27.1573 339.21 24.6699 342.625 22.8857L341.699 21.113C337.968 23.0621 335.03 25.8013 332.906 29.3228L334.618 30.3558ZM342.63 22.8831C346.098 21.0472 350.014 20.1193 354.402 20.1193V18.1193C349.723 18.1193 345.48 19.1115 341.694 21.1155L342.63 22.8831ZM354.402 20.1193C358.79 20.1193 362.677 21.0472 366.089 22.8802L367.035 21.1184C363.3 19.1114 359.081 18.1193 354.402 18.1193V20.1193ZM366.099 22.8857C369.515 24.6699 372.177 27.1573 374.106 30.3558L375.818 29.3228C373.694 25.8013 370.756 23.0621 367.025 21.113L366.099 22.8857ZM374.106 30.3558C376.03 33.5464 377.002 37.1782 377.002 41.2793H379.002C379.002 36.8471 377.947 32.8522 375.818 29.3228L374.106 30.3558ZM377.002 41.2793C377.002 45.3804 376.03 49.0122 374.106 52.2028L375.818 53.2358C377.947 49.7064 379.002 45.7116 379.002 41.2793H377.002ZM374.106 52.2028C372.175 55.4039 369.51 57.9203 366.089 59.7584L367.035 61.5202C370.761 59.5183 373.696 56.7548 375.818 53.2358L374.106 52.2028ZM366.099 59.753C362.686 61.5361 358.795 62.4393 354.402 62.4393V64.4393C359.076 64.4393 363.292 63.4759 367.025 61.5257L366.099 59.753ZM354.402 54.1993C357.85 54.1993 360.734 53.0387 362.967 50.6881L361.517 49.3106C359.697 51.2266 357.355 52.1993 354.402 52.1993V54.1993ZM362.967 50.6885C365.258 48.2796 366.362 45.1076 366.362 41.2793H364.362C364.362 44.7044 363.386 47.3457 361.518 49.3101L362.967 50.6885ZM366.362 41.2793C366.362 37.4519 365.258 34.3003 362.958 31.9412L361.526 33.3374C363.386 35.245 364.362 37.8534 364.362 41.2793H366.362ZM362.976 31.9596C360.745 29.5525 357.858 28.3593 354.402 28.3593V30.3593C357.347 30.3593 359.686 31.3528 361.509 33.3191L362.976 31.9596ZM354.402 28.3593C350.947 28.3593 348.039 29.552 345.758 31.9501L347.207 33.3285C349.086 31.3533 351.458 30.3593 354.402 30.3593V28.3593ZM345.766 31.9412C343.466 34.3003 342.362 37.4519 342.362 41.2793H344.362C344.362 37.8534 345.338 35.245 347.198 33.3374L345.766 31.9412ZM342.362 41.2793C342.362 45.1076 343.466 48.2796 345.758 50.6885L347.207 49.3101C345.338 47.3457 344.362 44.7044 344.362 41.2793H342.362ZM345.766 50.6974C348.049 53.0391 350.955 54.1993 354.402 54.1993V52.1993C351.45 52.1993 349.075 51.2262 347.198 49.3012L345.766 50.6974ZM434.184 3.43931H435.184V2.43931H434.184V3.43931ZM434.184 62.7993V63.7993H435.184V62.7993H434.184ZM422.264 62.7993H421.264V63.7993H422.264V62.7993ZM422.264 57.8393H423.264V55.0651L421.494 57.2013L422.264 57.8393ZM397.784 60.7193L397.297 61.5928L397.303 61.5961L397.784 60.7193ZM390.104 52.9593L390.978 52.4737L390.978 52.4737L390.104 52.9593ZM390.104 29.5993L390.978 30.085L390.978 30.085L390.104 29.5993ZM397.784 21.8393L397.303 20.9625L397.297 20.9658L397.784 21.8393ZM421.704 24.3193L420.958 24.9851L422.704 26.942V24.3193H421.704ZM421.704 3.43931V2.43931H420.704V3.43931H421.704ZM418.824 49.9993L419.54 50.6975L419.549 50.6885L418.824 49.9993ZM418.824 32.6393L418.099 33.3286L418.108 33.3374L418.824 32.6393ZM403.064 32.6393L403.78 33.3375L403.789 33.3285L403.064 32.6393ZM403.064 49.9993L402.339 50.6886L402.348 50.6974L403.064 49.9993ZM433.184 3.43931V62.7993H435.184V3.43931H433.184ZM434.184 61.7993H422.264V63.7993H434.184V61.7993ZM423.264 62.7993V57.8393H421.264V62.7993H423.264ZM421.494 57.2013C418.631 60.6571 414.462 62.4393 408.824 62.4393V64.4393C414.92 64.4393 419.711 62.4882 423.034 58.4773L421.494 57.2013ZM408.824 62.4393C404.926 62.4393 401.413 61.569 398.265 59.8425L397.303 61.5961C400.768 63.4963 404.616 64.4393 408.824 64.4393V62.4393ZM398.271 59.8458C395.186 58.1262 392.757 55.6763 390.978 52.4737L389.23 53.445C391.184 56.9623 393.876 59.6858 397.297 61.5928L398.271 59.8458ZM390.978 52.4737C389.206 49.2834 388.304 45.5621 388.304 41.2793H386.304C386.304 45.8499 387.269 49.9152 389.23 53.445L390.978 52.4737ZM388.304 41.2793C388.304 36.9966 389.206 33.2752 390.978 30.085L389.23 29.1137C387.269 32.6434 386.304 36.7087 386.304 41.2793H388.304ZM390.978 30.085C392.757 26.8823 395.186 24.4324 398.271 22.7128L397.297 20.9658C393.876 22.8729 391.184 25.5963 389.23 29.1137L390.978 30.085ZM398.265 22.7161C401.413 20.9896 404.926 20.1193 408.824 20.1193V18.1193C404.616 18.1193 400.768 19.0623 397.303 20.9625L398.265 22.7161ZM408.824 20.1193C414.089 20.1193 418.089 21.7701 420.958 24.9851L422.45 23.6535C419.132 19.9352 414.545 18.1193 408.824 18.1193V20.1193ZM422.704 24.3193V3.43931H420.704V24.3193H422.704ZM421.704 4.43931H434.184V2.43931H421.704V4.43931ZM410.984 54.1993C414.383 54.1993 417.26 53.0355 419.54 50.6974L418.108 49.3012C416.228 51.2298 413.878 52.1993 410.984 52.1993V54.1993ZM419.549 50.6885C421.84 48.2796 422.944 45.1076 422.944 41.2793H420.944C420.944 44.7044 419.968 47.3457 418.099 49.3101L419.549 50.6885ZM422.944 41.2793C422.944 37.4519 421.84 34.3003 419.54 31.9412L418.108 33.3374C419.968 35.245 420.944 37.8534 420.944 41.2793H422.944ZM419.549 31.9501C417.271 29.5557 414.391 28.3593 410.984 28.3593V30.3593C413.87 30.3593 416.217 31.3496 418.099 33.3285L419.549 31.9501ZM410.984 28.3593C407.529 28.3593 404.621 29.552 402.339 31.9501L403.789 33.3285C405.667 31.3533 408.039 30.3593 410.984 30.3593V28.3593ZM402.348 31.9412C400.048 34.3003 398.944 37.4519 398.944 41.2793H400.944C400.944 37.8534 401.92 35.245 403.78 33.3374L402.348 31.9412ZM398.944 41.2793C398.944 45.1076 400.048 48.2796 402.339 50.6885L403.789 49.3101C401.92 47.3457 400.944 44.7044 400.944 41.2793H398.944ZM402.348 50.6974C404.631 53.0391 407.537 54.1993 410.984 54.1993V52.1993C408.031 52.1993 405.657 51.2262 403.78 49.3012L402.348 50.6974Z" fill="#FF4206" fill-opacity="0.6"/>
</g>
<defs>
<clipPath id="clip0_14:7">
<rect width="441" height="71" fill="white"/>
</clipPath>
</defs>
</svg>
